<svg xmlns="http://www.w3.org/2000/svg" xmlns:xlink="http://www.w3.org/1999/xlink" fill="none" version="1.1" width="28.97601318359375" height="13.583999633789062" viewBox="0 0 28.97601318359375 13.583999633789062"><g><path d="M9.456,8.52L6.912,0L0.912,0L1.848,0.912L0,13.584L4.152,13.584L5.064,6.672L6.912,12.672L10.608,12.672L14.28,6.432L13.128,13.584L18.608,13.584L19.304,8.52L23.912,13.584L28.976,13.584L24.128,8.52L27.128,8.52Q27.488,8.52,27.812,8.4Q28.136,8.28,28.4,8.064Q28.664,7.848,28.82,7.548Q28.976,7.248,28.976,6.912L28.976,0L14,0L14.2119,0.120205L9.456,8.52ZM19.52,6.216L20,2.304L25.064,2.304L24.608,6.216L19.52,6.216Z" fill-rule="evenodd" fill="#0F172A" fill-opacity="1"/></g></svg>