<?xml version="1.0" encoding="UTF-8"?>
<svg width="300" height="200" viewBox="0 0 300 200" fill="none" xmlns="http://www.w3.org/2000/svg">
  <!-- 背景 -->
  <rect width="300" height="200" rx="10" fill="#FFFFFF" />
  
  <!-- 顶部区域 -->
  <g transform="translate(15, 15)">
    <!-- AI标识 -->
    <rect x="0" y="0" width="24" height="16" rx="3" fill="#EF4444"/>
    <text x="12" y="11" font-family="Arial" font-size="8" font-weight="bold" fill="white" text-anchor="middle">AI</text>
    
    <!-- 标题 -->
    <text x="30" y="11" font-family="Arial" font-size="10" font-weight="bold" fill="#333333">语法检查</text>
    
    <!-- 警告图标和问题数量 -->
    <g transform="translate(120, 0)">
      <circle cx="8" cy="8" r="8" fill="#FEF2F2" />
      <text x="8" y="11" font-family="Arial" font-size="8" font-weight="bold" fill="#EF4444" text-anchor="middle">!</text>
      <text x="22" y="11" font-family="Arial" font-size="8" font-weight="bold" fill="#EF4444">发现 2 个问题</text>
    </g>
  </g>
  
  <!-- 副标题 -->
  <text x="15" y="40" font-family="Arial" font-size="8" fill="#666666">AI已检测到以下语法和拼写问题</text>
  
  <!-- 中间区域 - 语法检查结果 -->
  <rect x="15" y="45" width="270" height="140" rx="6" fill="white" stroke="#E5E7EB" stroke-width="1" />
  
  <!-- 问题1 -->
  <g transform="translate(25, 60)">
    <!-- 警告图标 -->
    <circle cx="6" cy="6" r="6" fill="#FEF2F2" />
    <text x="6" y="9" font-family="Arial" font-size="7" font-weight="bold" fill="#EF4444" text-anchor="middle">!</text>
    
    <!-- 问题描述 -->
    <text x="18" y="9" font-family="Arial" font-size="8" fill="#111827">应为"前端框架"，用词错误</text>
    
    <!-- 定位按钮 -->
    <rect x="170" y="0" width="20" height="12" rx="2" fill="#F3F4F6" />
    <text x="180" y="9" font-family="Arial" font-size="7" fill="#374151" text-anchor="middle">定位</text>
  </g>
  
  
  <!-- 建议修改1 -->
  <g transform="translate(25, 90)">
    <text x="18" y="0" font-family="Arial" font-size="7" fill="#6B7280">建议修改：</text>
    <rect x="18" y="5" width="230" height="14" rx="2" fill="#F0FDF4" opacity="0.5" />
    <text x="23" y="15" font-family="Arial" font-size="7" fill="#111827"><tspan fill="#16A34A">前端</tspan></text>
  </g>
  
  <!-- 分隔线 -->
  <line x1="25" y1="120" x2="275" y2="120" stroke="#F3F4F6" stroke-width="1" />
  
  <!-- 问题2 -->
  <g transform="translate(25, 130)">
    <!-- 警告图标 -->
    <circle cx="6" cy="6" r="6" fill="#FEF2F2" />
    <text x="6" y="9" font-family="Arial" font-size="7" font-weight="bold" fill="#EF4444" text-anchor="middle">!</text>
    
    <!-- 问题描述 -->
    <text x="18" y="9" font-family="Arial" font-size="8" fill="#111827">应为"工程化工具"，错别字</text>
    
    <!-- 定位按钮 -->
    <rect x="170" y="0" width="20" height="12" rx="2" fill="#F3F4F6" />
    <text x="180" y="9" font-family="Arial" font-size="7" fill="#374151" text-anchor="middle">定位</text>
  </g>
  
  
  <!-- 建议修改2 -->
  <g transform="translate(25, 160)">
    <text x="18" y="0" font-family="Arial" font-size="7" fill="#6B7280">建议修改：</text>
    <rect x="18" y="5" width="230" height="14" rx="2" fill="#F0FDF4" opacity="0.5" />
    <text x="23" y="15" font-family="Arial" font-size="7" fill="#111827"><tspan fill="#16A34A">工程化</tspan></text>
  </g>
  
</svg>
