<?xml version="1.0" standalone="no"?>
<!DOCTYPE svg PUBLIC "-//W3C//DTD SVG 20010904//EN"
 "http://www.w3.org/TR/2001/REC-SVG-20010904/DTD/svg10.dtd">
<svg version="1.0" xmlns="http://www.w3.org/2000/svg"
 width="1536.000000pt" height="1024.000000pt" viewBox="0 0 1536.000000 1024.000000"
 preserveAspectRatio="xMidYMid meet">
<style>
  .logo-fill { fill: #000000; }
  @media (prefers-color-scheme: dark) {
    .logo-fill { fill: #ffffff; }
  }
</style>

<g class="logo-fill" transform="translate(0.000000,1024.000000) scale(0.100000,-0.100000)"
stroke="none">
<path d="M6084 7479 c-167 -16 -349 -71 -516 -156 -268 -136 -477 -338 -645
-621 -106 -178 -191 -239 -292 -211 -81 23 -182 144 -140 169 7 5 41 6 75 3
95 -9 173 27 209 98 22 42 19 67 -24 189 -112 318 -348 492 -666 492 -130 0
-227 -23 -344 -79 -161 -77 -273 -208 -343 -403 l-23 -65 -3 -1705 c-2 -1209
0 -1724 8 -1769 26 -151 106 -301 219 -411 81 -79 153 -122 268 -163 84 -30
95 -32 243 -32 149 0 159 1 243 31 201 72 342 200 427 388 65 144 62 94 70
1076 5 549 12 943 19 1020 36 376 130 630 290 783 137 131 268 181 471 180
196 -1 327 -50 441 -163 98 -98 156 -239 190 -465 17 -117 19 -189 19 -710 0
-319 5 -656 10 -750 38 -632 305 -1092 765 -1320 331 -165 722 -190 1078 -70
413 139 697 425 855 860 89 244 101 365 112 1090 9 641 15 719 70 938 107 426
359 632 750 614 252 -11 412 -111 516 -322 51 -103 78 -202 93 -339 7 -61 11
-476 11 -1168 0 -891 3 -1084 15 -1140 27 -130 122 -288 226 -377 183 -156
473 -206 725 -126 110 34 196 88 285 175 117 116 186 251 209 407 6 41 10 514
10 1203 0 1211 -2 1266 -51 1501 -38 187 -75 293 -159 461 -169 337 -429 600
-735 743 -444 208 -956 205 -1411 -10 -192 -90 -357 -214 -390 -292 -40 -93 1
-194 98 -244 45 -23 86 -24 152 -4 201 61 465 59 658 -5 113 -38 171 -67 291
-148 95 -63 98 -67 93 -97 -3 -16 -17 -40 -32 -52 -41 -37 -81 -30 -170 29
-154 100 -285 145 -456 155 -539 31 -966 -316 -1102 -897 -66 -283 -76 -407
-82 -1025 -3 -286 -9 -549 -15 -585 -27 -168 -146 -299 -312 -340 -27 -7 -84
-11 -135 -8 -136 7 -240 66 -311 176 -65 101 -63 83 -72 987 -7 850 -10 911
-55 1145 -34 181 -127 419 -232 595 -96 161 -273 359 -423 473 -147 112 -332
198 -541 252 -176 45 -343 58 -534 39z m-156 -815 c108 -19 178 -45 275 -102
102 -60 177 -129 249 -225 53 -72 58 -83 58 -131 0 -64 -20 -96 -60 -96 -22 0
-33 8 -51 38 -85 137 -273 266 -475 324 -113 32 -358 33 -486 1 -101 -26 -139
-19 -164 28 -18 36 -10 69 25 103 22 21 50 32 123 46 195 40 336 44 506 14z"/>
</g>
</svg>
