<svg xmlns="http://www.w3.org/2000/svg" xmlns:xlink="http://www.w3.org/1999/xlink" fill="none" version="1.1" width="125" height="35" viewBox="0 0 125 35"><g><g><rect x="0" y="2" width="47.520660400390625" height="33" rx="0" fill="#D8D8D8" fill-opacity="0"/></g><g><path d="M19.3556474609375,8.976L21.8996474609375,17.496L26.7236474609375,8.976L31.5716474609375,8.976L29.7236474609375,22.56L25.5716474609375,22.56L26.7236474609375,15.408L23.051647460937502,21.648L19.3556474609375,21.648L17.5076474609375,15.648L16.5956474609375,22.56L12.4436474609375,22.56L14.2916474609375,9.888L13.3556474609375,8.976L19.3556474609375,8.976Z" fill="#0F172A" fill-opacity="1"/></g><g><path d="M45.89362866210938,8.976L44.98162866210937,15.888Q44.98162866210937,16.224,44.825628662109374,16.524Q44.669628662109375,16.824,44.40562866210938,17.04Q44.141628662109376,17.256,43.81762866210937,17.376Q43.49362866210937,17.496,43.13362866210937,17.496L40.13362866210937,17.496L44.98162866210937,22.56L39.91762866210938,22.56L35.309628662109375,17.496L34.61362866210938,22.56L30.005628662109373,22.56L31.613628662109374,9.888L30.917628662109376,8.976L45.89362866210938,8.976ZM36.00562866210937,11.28L35.525628662109376,15.192L40.61362866210938,15.192L41.06962866210937,11.28L36.00562866210937,11.28Z" fill="#0F172A" fill-opacity="1"/></g><g><path d="M54.86784252929687,16.042Q54.86784252929687,15.34,55.56984252929688,15.34L66.13584252929688,15.34Q66.83784252929688,15.34,66.83784252929688,16.042L66.83784252929688,19.48Q66.83784252929688,20.182000000000002,66.13584252929688,20.182000000000002L55.56984252929688,20.182000000000002Q54.86784252929687,20.182000000000002,54.86784252929687,19.48L54.86784252929687,16.042ZM65.79384252929688,16.204L55.91184252929688,16.204L55.91184252929688,19.317999999999998L65.79384252929688,19.317999999999998L65.79384252929688,16.204ZM60.969842529296876,14.584Q61.38384252929687,14.584,61.38384252929687,14.998L61.38384252929687,17.392Q61.38384252929687,18.796,60.537842529296874,20.092Q59.69184252929688,21.388,58.098842529296874,22.369Q56.50584252929688,23.35,54.363842529296875,23.836Q53.967842529296874,23.926,53.85984252929688,23.512L53.823842529296876,23.26Q53.75184252929687,22.864,54.165842529296874,22.756Q56.10984252929688,22.342,57.49584252929687,21.514Q58.881842529296875,20.686,59.592842529296874,19.615000000000002Q60.30384252929687,18.544,60.30384252929687,17.392L60.30384252929687,14.998Q60.30384252929687,14.584,60.717842529296874,14.584L60.969842529296876,14.584ZM66.00984252929688,17.302Q66.31584252929687,17.302,66.31584252929687,17.608L66.31584252929687,17.805999999999997Q66.31584252929687,18.112000000000002,66.00984252929688,18.112000000000002L55.695842529296876,18.112000000000002Q55.38984252929687,18.112000000000002,55.38984252929687,17.805999999999997L55.38984252929687,17.608Q55.38984252929687,17.302,55.695842529296876,17.302L66.00984252929688,17.302ZM62.15784252929687,19.75Q62.57184252929687,19.75,62.57184252929687,20.164L62.57184252929687,22.882L67.61184252929688,22.882Q67.97184252929688,22.882,67.97184252929688,23.242L67.97184252929688,23.476Q67.97184252929688,23.836,67.61184252929688,23.836L62.229842529296874,23.836Q61.509842529296876,23.836,61.509842529296876,23.098L61.509842529296876,20.164Q61.509842529296876,19.75,61.905842529296876,19.75L62.15784252929687,19.75ZM65.19984252929687,20.218Q65.37984252929688,20.326,65.25384252929688,20.506L64.55184252929688,21.334L66.51384252929688,21.334L66.51384252929688,20.974Q66.51384252929688,20.884,66.57684252929687,20.820999999999998Q66.63984252929687,20.758,66.74784252929688,20.758L67.10784252929687,20.758Q67.41384252929687,20.758,67.41384252929687,21.064L67.41384252929687,21.586Q67.41384252929687,22,66.99984252929687,22L63.939842529296875,22Q63.50784252929687,22,63.40884252929688,21.82Q63.30984252929687,21.64,63.543842529296874,21.334L64.44384252929687,20.236Q64.65984252929687,19.93,64.89384252929688,20.073999999999998L65.19984252929687,20.218ZM55.42584252929687,12.405999999999999Q55.60584252929687,12.424,55.686842529296875,12.532Q55.76784252929687,12.64,55.74984252929688,12.838000000000001L55.55184252929688,14.152Q55.515842529296876,14.332,55.41684252929687,14.413Q55.317842529296875,14.494,55.119842529296875,14.476L54.88584252929687,14.458Q54.70584252929687,14.458,54.62484252929688,14.341Q54.543842529296874,14.224,54.561842529296875,14.044L54.759842529296876,12.712Q54.79584252929688,12.532,54.894842529296874,12.451Q54.99384252929688,12.370000000000001,55.19184252929688,12.388L55.42584252929687,12.405999999999999ZM57.45984252929688,9.940000000000001Q57.83784252929688,9.940000000000001,57.83784252929688,10.336L57.83784252929688,14.242Q57.83784252929688,14.62,57.45984252929688,14.62L57.22584252929688,14.62Q56.829842529296876,14.62,56.829842529296876,14.242L56.829842529296876,10.336Q56.829842529296876,9.940000000000001,57.22584252929688,9.940000000000001L57.45984252929688,9.940000000000001ZM59.601842529296874,12.388Q59.781842529296874,12.370000000000001,59.88984252929687,12.451Q59.997842529296875,12.532,60.015842529296876,12.712L60.213842529296876,14.044Q60.24984252929688,14.224,60.159842529296874,14.341Q60.06984252929688,14.458,59.88984252929687,14.458L59.655842529296876,14.476Q59.47584252929688,14.494,59.36784252929687,14.413Q59.259842529296876,14.332,59.241842529296875,14.152L59.025842529296874,12.838000000000001Q59.00784252929687,12.64,59.09784252929688,12.532Q59.18784252929687,12.424,59.36784252929687,12.405999999999999L59.601842529296874,12.388ZM60.05184252929688,10.696Q60.41184252929688,10.696,60.41184252929688,11.074L60.41184252929688,11.29Q60.41184252929688,11.668,60.05184252929688,11.668L54.50784252929687,11.668Q54.147842529296874,11.668,54.147842529296874,11.29L54.147842529296874,11.074Q54.147842529296874,10.696,54.50784252929687,10.696L60.05184252929688,10.696ZM62.229842529296874,12.405999999999999Q62.409842529296874,12.424,62.49984252929688,12.532Q62.589842529296874,12.64,62.57184252929687,12.838000000000001L62.35584252929688,14.152Q62.33784252929688,14.332,62.229842529296874,14.413Q62.12184252929688,14.494,61.94184252929688,14.476L61.707842529296876,14.458Q61.527842529296876,14.458,61.43784252929687,14.341Q61.34784252929688,14.224,61.38384252929687,14.044L61.58184252929688,12.712Q61.59984252929688,12.532,61.707842529296876,12.451Q61.81584252929687,12.370000000000001,61.99584252929687,12.388L62.229842529296874,12.405999999999999ZM64.38984252929687,9.940000000000001Q64.78584252929687,9.940000000000001,64.78584252929687,10.336L64.78584252929687,14.242Q64.78584252929687,14.62,64.38984252929687,14.62L64.15584252929688,14.62Q63.777842529296876,14.62,63.777842529296876,14.242L63.777842529296876,10.336Q63.777842529296876,9.940000000000001,64.15584252929688,9.940000000000001L64.38984252929687,9.940000000000001ZM66.44184252929688,12.388Q66.62184252929687,12.370000000000001,66.72984252929687,12.451Q66.83784252929688,12.532,66.87384252929688,12.712L67.07184252929687,14.044Q67.08984252929687,14.224,67.00884252929687,14.341Q66.92784252929687,14.458,66.72984252929687,14.458L66.51384252929688,14.476Q66.31584252929687,14.494,66.20784252929687,14.413Q66.09984252929688,14.332,66.08184252929688,14.152L65.88384252929687,12.838000000000001Q65.84784252929687,12.64,65.93784252929687,12.532Q66.02784252929688,12.424,66.20784252929687,12.405999999999999L66.44184252929688,12.388ZM67.12584252929688,10.696Q67.50384252929688,10.696,67.50384252929688,11.074L67.50384252929688,11.29Q67.50384252929688,11.668,67.12584252929688,11.668L61.527842529296876,11.668Q61.149842529296876,11.668,61.149842529296876,11.29L61.149842529296876,11.074Q61.149842529296876,10.696,61.527842529296876,10.696L67.12584252929688,10.696ZM67.10784252929687,8.374Q67.50384252929688,8.374,67.50384252929688,8.788L67.50384252929688,9.022Q67.50384252929688,9.436,67.10784252929687,9.436L53.49984252929688,9.436L53.49984252929688,15.448Q53.49984252929688,17.518,53.13084252929688,19.462Q52.76184252929688,21.406,51.98784252929688,23.296Q51.915842529296874,23.512,51.762842529296876,23.575Q51.60984252929688,23.638,51.42984252929688,23.548L51.195842529296876,23.44Q50.997842529296875,23.35,50.94384252929687,23.215Q50.88984252929688,23.08,50.961842529296874,22.882Q51.69984252929687,21.1,52.05084252929687,19.282Q52.40184252929687,17.464,52.40184252929687,15.448L52.40184252929687,9.166Q52.40184252929687,8.374,53.19384252929687,8.374L67.10784252929687,8.374ZM60.50184252929687,7.311999999999999Q60.86184252929688,7.311999999999999,60.86184252929688,7.6899999999999995L60.86184252929688,8.536Q60.86184252929688,8.896,60.50184252929687,8.896L60.06984252929688,8.896Q59.69184252929688,8.896,59.69184252929688,8.536L59.69184252929688,7.6899999999999995Q59.69184252929688,7.311999999999999,60.06984252929688,7.311999999999999L60.50184252929687,7.311999999999999ZM83.03784252929688,14.638Q83.45184252929687,14.638,83.66784252929688,14.854Q83.88384252929689,15.07,83.88384252929689,15.484L83.88384252929689,22.72Q83.88384252929689,23.134,83.66784252929688,23.35Q83.45184252929687,23.566,83.03784252929688,23.566L80.91384252929687,23.566Q80.46384252929687,23.566,80.46384252929687,23.134L80.46384252929687,22.864Q80.46384252929687,22.432,80.91384252929687,22.432L82.69584252929687,22.432L82.69584252929687,15.79L74.61384252929687,15.79Q74.18184252929687,15.79,74.18184252929687,15.34L74.18184252929687,15.07Q74.18184252929687,14.638,74.61384252929687,14.638L83.03784252929688,14.638ZM74.32584252929688,10.138Q74.77584252929688,10.138,74.77584252929688,10.588000000000001L74.77584252929688,14.35Q74.77584252929688,17.05,73.70484252929688,19.444000000000003Q72.63384252929687,21.838,70.43784252929687,23.656Q70.11384252929687,23.962,69.80784252929688,23.602L69.64584252929687,23.368Q69.37584252929688,23.044,69.71784252929687,22.72Q71.71584252929688,21.082,72.65184252929687,18.958Q73.58784252929688,16.834,73.58784252929688,14.35L73.58784252929688,10.588000000000001Q73.58784252929688,10.138,74.03784252929688,10.138L74.32584252929688,10.138ZM84.94584252929687,9.58Q85.37784252929688,9.58,85.37784252929688,10.012L85.37784252929688,10.282Q85.37784252929688,10.714,84.94584252929687,10.714L70.29384252929688,10.714Q69.86184252929688,10.714,69.86184252929688,10.282L69.86184252929688,10.012Q69.86184252929688,9.58,70.29384252929688,9.58L84.94584252929687,9.58ZM77.76384252929688,7.492Q78.23184252929687,7.492,78.23184252929687,7.96L78.23184252929687,9.67Q78.23184252929687,10.138,77.76384252929688,10.138L77.47584252929687,10.138Q77.00784252929688,10.138,77.00784252929688,9.67L77.00784252929688,7.96Q77.00784252929688,7.492,77.47584252929687,7.492L77.76384252929688,7.492ZM91.74984252929687,15.754Q91.74984252929687,15.376,91.94784252929688,15.178Q92.14584252929689,14.98,92.52384252929687,14.98L98.71584252929688,14.98Q99.09384252929686,14.98,99.29184252929687,15.178Q99.48984252929688,15.376,99.48984252929688,15.754L99.48984252929688,21.37Q99.48984252929688,21.748,99.29184252929687,21.946Q99.09384252929686,22.144,98.71584252929688,22.144L92.52384252929687,22.144Q92.14584252929689,22.144,91.94784252929688,21.946Q91.74984252929687,21.748,91.74984252929687,21.37L91.74984252929687,15.754ZM98.39184252929687,16.024L92.84784252929688,16.024L92.84784252929688,21.1L98.39184252929687,21.1L98.39184252929687,16.024ZM88.94184252929688,14.512Q89.37384252929687,14.512,89.37384252929687,14.944L89.37384252929687,23.404Q89.37384252929687,23.836,88.94184252929688,23.836L88.68984252929687,23.836Q88.25784252929688,23.836,88.25784252929688,23.404L88.25784252929688,14.944Q88.25784252929688,14.512,88.68984252929687,14.512L88.94184252929688,14.512ZM98.55384252929687,18.058Q98.93184252929687,18.058,98.93184252929687,18.436L98.93184252929687,18.688000000000002Q98.93184252929687,19.066000000000003,98.55384252929687,19.066000000000003L92.68584252929688,19.066000000000003Q92.30784252929688,19.066000000000003,92.30784252929688,18.688000000000002L92.30784252929688,18.436Q92.30784252929688,18.058,92.68584252929688,18.058L98.55384252929687,18.058ZM89.53584252929687,11.344000000000001Q89.89584252929689,11.11,90.12984252929687,11.488L91.40784252929687,13.36Q91.62384252929687,13.72,91.26384252929688,13.954L91.02984252929687,14.098Q90.66984252929687,14.332,90.43584252929688,13.954L89.17584252929687,12.082Q88.94184252929688,11.722000000000001,89.30184252929688,11.488L89.53584252929687,11.344000000000001ZM102.18984252929687,11.974Q102.58584252929688,11.974,102.78384252929688,12.172Q102.98184252929687,12.370000000000001,102.98184252929687,12.766L102.98184252929687,23.098Q102.98184252929687,23.494,102.78384252929688,23.692Q102.58584252929688,23.89,102.18984252929687,23.89L100.51584252929688,23.89Q100.10184252929687,23.89,100.10184252929687,23.494L100.10184252929687,23.242Q100.10184252929687,22.846,100.51584252929688,22.846L101.86584252929688,22.846L101.86584252929688,13.018L93.02784252929688,13.018Q92.61384252929687,13.018,92.61384252929687,12.622L92.61384252929687,12.370000000000001Q92.61384252929687,11.974,93.02784252929688,11.974L102.18984252929687,11.974ZM91.96584252929688,9.076Q92.39784252929687,9.076,92.39784252929687,9.508L92.39784252929687,10.75Q92.39784252929687,11.182,91.96584252929688,11.182L91.71384252929687,11.182Q91.28184252929688,11.182,91.28184252929688,10.75L91.28184252929688,9.508Q91.28184252929688,9.076,91.71384252929687,9.076L91.96584252929688,9.076ZM88.88784252929688,7.51Q89.33784252929688,7.51,89.33784252929688,7.852L89.33784252929688,8.554L94.86384252929687,8.554Q95.25984252929688,8.554,95.25984252929688,8.95L95.25984252929688,9.202Q95.25984252929688,9.597999999999999,94.86384252929687,9.597999999999999L88.97784252929688,9.597999999999999Q88.59984252929686,9.597999999999999,88.39284252929687,9.4Q88.18584252929688,9.202,88.18584252929688,8.806000000000001L88.18584252929688,7.852Q88.18584252929688,7.51,88.63584252929687,7.51L88.88784252929688,7.51ZM99.52584252929688,9.076Q99.95784252929687,9.076,99.95784252929687,9.508L99.95784252929687,10.75Q99.95784252929687,11.182,99.52584252929688,11.182L99.27384252929687,11.182Q98.84184252929688,11.182,98.84184252929688,10.75L98.84184252929688,9.508Q98.84184252929688,9.076,99.27384252929687,9.076L99.52584252929688,9.076ZM96.93384252929687,7.51Q97.38384252929689,7.51,97.38384252929689,7.852L97.38384252929689,8.554L103.07184252929687,8.554Q103.46784252929687,8.554,103.46784252929687,8.95L103.46784252929687,9.202Q103.46784252929687,9.597999999999999,103.07184252929687,9.597999999999999L97.02384252929687,9.597999999999999Q96.64584252929689,9.597999999999999,96.43884252929688,9.4Q96.23184252929687,9.202,96.23184252929687,8.806000000000001L96.23184252929687,7.852Q96.23184252929687,7.51,96.68184252929687,7.51L96.93384252929687,7.51ZM120.69384252929687,8.212Q121.12584252929688,8.212,121.12584252929688,8.644L121.12584252929688,8.914Q121.12584252929688,9.346,120.69384252929687,9.346L108.05784252929688,9.346L108.05784252929688,15.196Q108.05784252929688,19.57,106.18584252929688,23.296Q106.02384252929687,23.692,105.60984252929688,23.512L105.37584252929688,23.404Q104.97984252929687,23.242,105.15984252929687,22.81Q106.07784252929687,20.992,106.49184252929687,19.119999999999997Q106.90584252929688,17.247999999999998,106.90584252929688,15.196L106.90584252929688,9.04Q106.90584252929688,8.644,107.12184252929688,8.428Q107.33784252929688,8.212,107.73384252929688,8.212L120.69384252929687,8.212ZM119.97384252929687,13.774Q120.38784252929688,13.774,120.59484252929687,13.99Q120.80184252929688,14.206,120.80184252929688,14.602L120.80184252929688,22.882Q120.80184252929688,23.278,120.59484252929687,23.485Q120.38784252929688,23.692,119.97384252929687,23.692L118.04784252929687,23.692Q117.61584252929687,23.692,117.61584252929687,23.26L117.61584252929687,23.008Q117.61584252929687,22.576,118.04784252929687,22.576L119.66784252929688,22.576L119.66784252929688,14.908L109.82184252929687,14.908Q109.38984252929689,14.908,109.38984252929689,14.476L109.38984252929689,14.224Q109.38984252929689,13.774,109.82184252929687,13.774L119.97384252929687,13.774ZM113.99784252929688,10.84Q114.44784252929688,10.84,114.44784252929688,11.272L114.44784252929688,14.17Q114.53784252929688,17.212,113.34984252929686,19.686999999999998Q112.16184252929688,22.162,109.60584252929686,23.692Q109.22784252929688,23.908,109.02984252929687,23.53L108.90384252929687,23.278Q108.70584252929687,22.9,109.08384252929687,22.666Q111.35184252929687,21.316,112.36884252929687,19.156Q113.38584252929687,16.996000000000002,113.29584252929688,14.17L113.29584252929688,11.272Q113.29584252929688,10.84,113.74584252929688,10.84L113.99784252929688,10.84Z" fill="#0F172A" fill-opacity="1"/></g></g></svg>